#!OML:ASF X:\für Bonn\!DataBase\2005_08_11_Bastian_Final\c3d\Bastian.ASF
:FULLY-SPECIFIED
:DEGREES
384
root -0.47272 1.75326 25.4002 -979.391 -1.69763 -892.675
lowerback 66.6282 5.00805 12.4243
upperback 23.1734 -5.19275 4.30634
thorax 5.76769 -10.7055 0.54015
lowerneck -26.7438 -6.21713 -4.23513
upperneck 10.5644 -7.60573 5.43591
head 7.90857 -3.11201 1.44034
rclavicle -2.96189e-014 -7.95139e-016
rhumerus -65.0446 31.8389 -108.352
rradius 50.489
rwrist -4.3051
rhand -30.2821 -12.6084
rfingers 7.12502
rthumb -3.58992 -42.5579
lclavicle -2.96189e-014 -7.95139e-016
lhumerus -241.121 -181.917 255.527
lradius 57.9044
lwrist 69.9652
lhand -36.6081 2.44209
lfingers 7.12502
lthumb -9.69659 32.1989
rfemur -61.7184 -5.18639 24.7913
rtibia 98.636
rfoot 7.91689 1.62876
rtoes -17.0549
lfemur -62.9544 14.766 -21.8201
ltibia 112.612
lfoot 11.539 7.13852
ltoes 29.2421
385
root -0.4644 1.7402 25.4037 -979.323 -1.82021 -892.876
lowerback 66.4385 5.10331 12.2412
upperback 23.213 -5.16184 4.24769
thorax 5.7853 -10.6711 0.529624
lowerneck -26.8339 -6.20108 -4.16756
upperneck 10.6522 -7.59429 5.34442
head 7.94473 -3.11142 1.39831
rclavicle 2.18663e-014 -1.19271e-014
rhumerus -65.4997 31.4798 -108.247
rradius 51.3495
rwrist -3.85568
rhand -30.0456 -12.9462
rfingers 7.12502
rthumb -3.3615 -42.8995
lclavicle 2.18663e-014 -1.19271e-014
lhumerus -241.567 -181.58 255.603
lradius 58.5355
lwrist 70.2722
lhand -36.6822 2.30878
lfingers 7.12502
lthumb -9.76806 32.0622
rfemur -60.9825 -4.87945 24.6049
rtibia 97.0946
rfoot 7.93559 1.63768
rtoes -17.0234
lfemur -63.0681 14.813 -21.9619
ltibia 112.544
lfoot 11.5813 7.31418
ltoes 29.3915
386
root -0.456615 1.7279 25.4056 -979.232 -1.93741 -893.088
lowerback 66.2512 5.17509 12.0657
upperback 23.2252 -5.12383 4.14185
thorax 5.76594 -10.6125 0.469494
lowerneck -26.8636 -6.17507 -4.031
upperneck 10.7433 -7.59678 5.24467
head 7.97054 -3.11701 1.3416
rclavicle 7.95139e-016 0
rhumerus -66.013 31.0642 -108.228
rradius 52.2323
rwrist -3.40214
rhand -29.8391 -13.3057
rfingers 7.12502
rthumb -3.16208 -43.262
lclavicle 7.95139e-016 0
lhumerus -242.078 -181.172 255.651
lradius 59.2125
lwrist 70.5974
lhand -36.8122 2.19316
lfingers 7.12502
lthumb -9.89348 31.9407
rfemur -60.2877 -4.59473 24.4405
rtibia 95.6003
rfoot 7.94643 1.64737
rtoes -17.1875
lfemur -63.218 14.8721 -22.1221
ltibia 112.48
lfoot 11.6344 7.48343
ltoes 29.5688
387
root -0.448698 1.71616 25.4098 -979.122 -2.03311 -893.286
lowerback 66.0475 5.25352 11.8794
upperback 23.2303 -5.08179 4.07023
thorax 5.74054 -10.5581 0.451197
lowerneck -26.8666 -6.15674 -4.00803
upperneck 10.8102 -7.58041 5.20666
head 7.99039 -3.11298 1.32677
rclavicle 4.65156e-014 1.43125e-014
rhumerus -66.5729 30.7367 -108.186
rradius 53.1464
rwrist -2.9685
rhand -29.6467 -13.6171
rfingers 7.12502
rthumb -2.97623 -43.5761
lclavicle 4.65156e-014 1.43125e-014
lhumerus -242.584 -180.802 255.746
lradius 59.89
lwrist 70.8781
lhand -36.8975 2.17036
lfingers 7.12502
lthumb -9.97573 31.914
rfemur -59.6136 -4.30429 24.2953
rtibia 94.13
rfoot 8.01679 1.56538
rtoes -16.84
lfemur -63.3744 14.9082 -22.2432
ltibia 112.413
lfoot 11.6306 7.66455
ltoes 29.9712
388
root -0.441346 1.70495 25.4119 -979.009 -2.13072 -893.475
lowerback 65.8618 5.30638 11.7128
upperback 23.2127 -5.03779 3.97961
thorax 5.68846 -10.4912 0.409654
lowerneck -26.844 -6.13499 -3.90683
upperneck 10.8894 -7.57887 5.10712
head 8.00525 -3.12012 1.27707
rclavicle 1.63003e-014 1.19271e-014
rhumerus -67.1928 30.3666 -108.185
rradius 54.1078
rwrist -2.53518
rhand -29.4746 -13.8723
rfingers 7.12502
rthumb -2.81009 -43.8335
lclavicle 1.63003e-014 1.19271e-014
lhumerus -243.089 -180.423 255.81
lradius 60.5192
lwrist 71.1294
lhand -37.039 2.13039
lfingers 7.12502
lthumb -10.1123 31.8674
rfemur -58.9572 -3.99106 24.1402
rtibia 92.6916
rfoot 8.14177 1.46114
rtoes -16.6929
lfemur -63.5524 14.91 -22.3677
ltibia 112.363
lfoot 11.6595 7.84248
ltoes 30.2286
